<svg width="32" height="32" viewBox="0 0 32 32" fill="none" xmlns="http://www.w3.org/2000/svg">
  <!-- Černé pozadí -->
  <rect width="32" height="32" fill="#000000"/>
  
  <!-- Bílé písmeno S -->
  <path d="M6 10.5C6 9.5 6.5 8.5 7.5 8C8.5 7.5 9.5 7.5 10.5 8C11 8.2 11.4 8.6 11.6 9H13.8C13.5 7.8 12.8 6.8 11.8 6.2C10.3 5.3 8.7 5.3 7.2 6.2C5.8 7 5 8.7 5 10.5C5 12.3 5.8 14 7.2 14.8C8.2 15.4 9.3 15.6 10.5 15.5C11.5 15.4 12.4 15 13 14.3C13.6 13.6 13.9 12.7 13.9 11.8H12.9C12.9 12.4 12.7 13 12.3 13.4C11.9 13.8 11.3 14 10.7 14C9.8 14 9 13.6 8.5 13C7.8 12.2 7.5 11.2 7.5 10.2C7.5 9.8 7.6 9.4 7.8 9.1C8 8.8 8.3 8.6 8.6 8.5C9.2 8.3 9.8 8.4 10.3 8.7C10.8 9 11.1 9.5 11.2 10H9.5V11H13V10.5C13 9.5 12.5 8.5 11.5 8C10.5 7.5 9.5 7.5 8.5 8C7.5 8.5 7 9.5 7 10.5Z" fill="#FFFFFF"/>
  
  <!-- Bílé písmeno D -->
  <path d="M18 8V24H22.5C24.2 24 25.8 23.3 27 22.1C28.2 20.9 28.9 19.3 28.9 17.6V14.4C28.9 12.7 28.2 11.1 27 9.9C25.8 8.7 24.2 8 22.5 8H18ZM20 10H22.5C23.7 10 24.8 10.5 25.6 11.3C26.4 12.1 26.9 13.2 26.9 14.4V17.6C26.9 18.8 26.4 19.9 25.6 20.7C24.8 21.5 23.7 22 22.5 22H20V10Z" fill="#FFFFFF"/>
</svg>